solid OpenSCAD_Model
  facet normal 0.846415 0.488678 0.211604
    outer loop
      vertex 12.5 0 0
      vertex 9.74795 3.61266 2.66511
      vertex 11.5 0 4
    endloop
  endfacet
  facet normal 0.846415 0.488678 0.211604
    outer loop
      vertex 9.74795 3.61266 2.66511
      vertex 12.5 0 0
      vertex 10.4142 3.61266 0
    endloop
  endfacet
  facet normal 0.846415 0.488678 0.211603
    outer loop
      vertex 8.33577 7.21266 0
      vertex 6.25 10.8253 0
      vertex 8.1544 6.89852 1.45097
    endloop
  endfacet
  facet normal -0.846415 -0.488678 0.211604
    outer loop
      vertex -12.5 0 0
      vertex -10.2103 -2.65939 3.01735
      vertex -11.5 0 4
    endloop
  endfacet
  facet normal -0.846415 -0.488678 0.211604
    outer loop
      vertex -10.2103 -2.65939 3.01735
      vertex -12.5 0 0
      vertex -10.5874 -3.31266 0
    endloop
  endfacet
  facet normal -0.846415 -0.488678 0.211603
    outer loop
      vertex -7.85655 -7.51266 1.22404
      vertex -8.16256 -7.51266 0
      vertex -6.25 -10.8253 0
    endloop
  endfacet
  facet normal 0 0 -1
    outer loop
      vertex 3.11769 -12.6253 0
      vertex -2.07846 -10.8253 0
      vertex 2.07846 -10.8253 0
    endloop
  endfacet
  facet normal 0 -0 -1
    outer loop
      vertex -2.07846 -10.8253 0
      vertex 3.11769 -12.6253 0
      vertex -3.11769 -12.6253 0
    endloop
  endfacet
  facet normal 0 0 -1
    outer loop
      vertex 9.375 -1.21266 0
      vertex 12.5 0 0
      vertex 10.5874 -3.31266 0
    endloop
  endfacet
  facet normal -0 0 -1
    outer loop
      vertex 12.5 0 0
      vertex 9.375 -1.21266 0
      vertex 10.4142 3.61266 0
    endloop
  endfacet
  facet normal 0 0 -1
    outer loop
      vertex 10.4142 3.61266 0
      vertex 9.375 9.01266 0
      vertex 12.4927 3.61266 0
    endloop
  endfacet
  facet normal 0 0 -1
    outer loop
      vertex 8.33577 7.21266 0
      vertex 10.4142 3.61266 0
      vertex 9.375 -1.21266 0
    endloop
  endfacet
  facet normal 0 0 -1
    outer loop
      vertex 10.4142 3.61266 0
      vertex 8.33577 7.21266 0
      vertex 9.375 9.01266 0
    endloop
  endfacet
  facet normal 0 0 -1
    outer loop
      vertex 3.63731 8.72532 0
      vertex 8.33577 7.21266 0
      vertex 9.375 -1.21266 0
    endloop
  endfacet
  facet normal 0 0 -1
    outer loop
      vertex 3.63731 8.72532 0
      vertex 9.375 -1.21266 0
      vertex 5.73769 -7.51266 0
    endloop
  endfacet
  facet normal 0 0 -1
    outer loop
      vertex 8.33577 7.21266 0
      vertex 3.63731 8.72532 0
      vertex 6.25 10.8253 0
    endloop
  endfacet
  facet normal -0 0 -1
    outer loop
      vertex 6.25 10.8253 0
      vertex 3.63731 8.72532 0
      vertex 2.42487 10.8253 0
    endloop
  endfacet
  facet normal 0 0 -1
    outer loop
      vertex 6.25 -10.8253 0
      vertex 5.73769 -7.51266 0
      vertex 8.16256 -7.51266 0
    endloop
  endfacet
  facet normal 0 0 -1
    outer loop
      vertex 2.07846 -10.8253 0
      vertex 5.73769 -7.51266 0
      vertex 6.25 -10.8253 0
    endloop
  endfacet
  facet normal 0 0 -1
    outer loop
      vertex -5.73769 -7.51266 0
      vertex 5.73769 -7.51266 0
      vertex 2.07846 -10.8253 0
    endloop
  endfacet
  facet normal 0 0 -1
    outer loop
      vertex -5.73769 -7.51266 0
      vertex 2.07846 -10.8253 0
      vertex -2.07846 -10.8253 0
    endloop
  endfacet
  facet normal 0 0 -1
    outer loop
      vertex 5.73769 -7.51266 0
      vertex -5.73769 -7.51266 0
      vertex 3.63731 8.72532 0
    endloop
  endfacet
  facet normal -0 0 -1
    outer loop
      vertex 3.63731 8.72532 0
      vertex -5.73769 -7.51266 0
      vertex -3.63731 8.72532 0
    endloop
  endfacet
  facet normal 0 0 -1
    outer loop
      vertex -6.25 -10.8253 0
      vertex -5.73769 -7.51266 0
      vertex -2.07846 -10.8253 0
    endloop
  endfacet
  facet normal -0 0 -1
    outer loop
      vertex -5.73769 -7.51266 0
      vertex -6.25 -10.8253 0
      vertex -8.16256 -7.51266 0
    endloop
  endfacet
  facet normal 0 0 -1
    outer loop
      vertex -3.63731 8.72532 0
      vertex -6.25 10.8253 0
      vertex -2.42487 10.8253 0
    endloop
  endfacet
  facet normal 0 0 -1
    outer loop
      vertex -9.375 -1.21266 0
      vertex -3.63731 8.72532 0
      vertex -5.73769 -7.51266 0
    endloop
  endfacet
  facet normal -0 0 -1
    outer loop
      vertex -3.63731 8.72532 0
      vertex -8.33577 7.21266 0
      vertex -6.25 10.8253 0
    endloop
  endfacet
  facet normal 0 0 -1
    outer loop
      vertex -3.63731 8.72532 0
      vertex -9.375 -1.21266 0
      vertex -8.33577 7.21266 0
    endloop
  endfacet
  facet normal 0 0 -1
    outer loop
      vertex -10.4142 3.61266 0
      vertex -8.33577 7.21266 0
      vertex -9.375 -1.21266 0
    endloop
  endfacet
  facet normal -0 0 -1
    outer loop
      vertex -8.33577 7.21266 0
      vertex -10.4142 3.61266 0
      vertex -9.375 9.01266 0
    endloop
  endfacet
  facet normal 0 0 -1
    outer loop
      vertex -12.5 0 0
      vertex -9.375 -1.21266 0
      vertex -10.5874 -3.31266 0
    endloop
  endfacet
  facet normal 0 0 -1
    outer loop
      vertex -9.375 -1.21266 0
      vertex -12.5 0 0
      vertex -10.4142 3.61266 0
    endloop
  endfacet
  facet normal 0 0 -1
    outer loop
      vertex -9.375 9.01266 0
      vertex -10.4142 3.61266 0
      vertex -12.4927 3.61266 0
    endloop
  endfacet
  facet normal 0 0 1
    outer loop
      vertex 8 0 4
      vertex 5.73769 -7.51266 4
      vertex 9.375 -1.21266 4
    endloop
  endfacet
  facet normal 0 -0 1
    outer loop
      vertex 5.73769 -7.51266 4
      vertex 8 0 4
      vertex 4 -6.9282 4
    endloop
  endfacet
  facet normal 0 0 1
    outer loop
      vertex 12.4927 3.61266 4
      vertex 9.375 9.01266 4
      vertex 9.41423 3.61266 4
    endloop
  endfacet
  facet normal 0 0 1
    outer loop
      vertex 8 0 4
      vertex 11.5 0 4
      vertex 9.41423 3.61266 4
    endloop
  endfacet
  facet normal 0 0 1
    outer loop
      vertex 11.5 0 4
      vertex 9.375 -1.21266 4
      vertex 10.0874 -2.44663 4
    endloop
  endfacet
  facet normal -0 0 1
    outer loop
      vertex 7.83577 6.34663 4
      vertex 9.41423 3.61266 4
      vertex 9.375 9.01266 4
    endloop
  endfacet
  facet normal 0 -0 1
    outer loop
      vertex 8 0 4
      vertex 9.41423 3.61266 4
      vertex 7.83577 6.34663 4
    endloop
  endfacet
  facet normal 0 0 1
    outer loop
      vertex 11.5 0 4
      vertex 8 0 4
      vertex 9.375 -1.21266 4
    endloop
  endfacet
  facet normal -0 0 1
    outer loop
      vertex 4 6.9282 4
      vertex 7.83577 6.34663 4
      vertex 5.75 9.95929 4
    endloop
  endfacet
  facet normal 0 0 1
    outer loop
      vertex 7.83577 6.34663 4
      vertex 4 6.9282 4
      vertex 8 0 4
    endloop
  endfacet
  facet normal 0 0 1
    outer loop
      vertex 5.75 9.95929 4
      vertex 3.63731 8.72532 4
      vertex 4 6.9282 4
    endloop
  endfacet
  facet normal 0 -0 1
    outer loop
      vertex 3.63731 8.72532 4
      vertex 5.75 9.95929 4
      vertex 2.92487 9.95929 4
    endloop
  endfacet
  facet normal -0 0 1
    outer loop
      vertex 5.73769 -7.51266 4
      vertex 5.75 -9.95929 4
      vertex 7.16256 -7.51266 4
    endloop
  endfacet
  facet normal 0 0 1
    outer loop
      vertex 4 -6.9282 4
      vertex 5.75 -9.95929 4
      vertex 5.73769 -7.51266 4
    endloop
  endfacet
  facet normal 0 0 1
    outer loop
      vertex 4 -6.9282 4
      vertex 1.57846 -9.95929 4
      vertex 5.75 -9.95929 4
    endloop
  endfacet
  facet normal 0 0 1
    outer loop
      vertex 4 -6.9282 4
      vertex -1.57846 -9.95929 4
      vertex 1.57846 -9.95929 4
    endloop
  endfacet
  facet normal -0 0 1
    outer loop
      vertex -4 -6.9282 4
      vertex -1.57846 -9.95929 4
      vertex 4 -6.9282 4
    endloop
  endfacet
  facet normal 0 0 1
    outer loop
      vertex -5.75 -9.95929 4
      vertex -4 -6.9282 4
      vertex -5.73769 -7.51266 4
    endloop
  endfacet
  facet normal 0 0 1
    outer loop
      vertex -4 -6.9282 4
      vertex -5.75 -9.95929 4
      vertex -1.57846 -9.95929 4
    endloop
  endfacet
  facet normal 0 -0 1
    outer loop
      vertex -5.75 -9.95929 4
      vertex -5.73769 -7.51266 4
      vertex -7.16256 -7.51266 4
    endloop
  endfacet
  facet normal -0 0 1
    outer loop
      vertex -3.63731 8.72532 4
      vertex 4 6.9282 4
      vertex 3.63731 8.72532 4
    endloop
  endfacet
  facet normal 0 0 1
    outer loop
      vertex 4 6.9282 4
      vertex -3.63731 8.72532 4
      vertex -4 6.9282 4
    endloop
  endfacet
  facet normal -0 0 1
    outer loop
      vertex -11.5 0 4
      vertex -9.375 -1.21266 4
      vertex -9.41423 3.61266 4
    endloop
  endfacet
  facet normal 0 0 1
    outer loop
      vertex -9.375 -1.21266 4
      vertex -11.5 0 4
      vertex -10.0874 -2.44663 4
    endloop
  endfacet
  facet normal 0 0 1
    outer loop
      vertex -8 0 4
      vertex -5.73769 -7.51266 4
      vertex -4 -6.9282 4
    endloop
  endfacet
  facet normal 0 0 1
    outer loop
      vertex -8 0 4
      vertex -9.375 -1.21266 4
      vertex -5.73769 -7.51266 4
    endloop
  endfacet
  facet normal 0 0 1
    outer loop
      vertex -7.83577 6.34663 4
      vertex -9.375 -1.21266 4
      vertex -8 0 4
    endloop
  endfacet
  facet normal 0 0 1
    outer loop
      vertex -7.83577 6.34663 4
      vertex -9.41423 3.61266 4
      vertex -9.375 -1.21266 4
    endloop
  endfacet
  facet normal 0 -0 1
    outer loop
      vertex -9.41423 3.61266 4
      vertex -9.375 9.01266 4
      vertex -12.4927 3.61266 4
    endloop
  endfacet
  facet normal -0 0 1
    outer loop
      vertex -5.75 9.95929 4
      vertex -3.63731 8.72532 4
      vertex -2.92487 9.95929 4
    endloop
  endfacet
  facet normal 0 0 1
    outer loop
      vertex -5.75 9.95929 4
      vertex -4 6.9282 4
      vertex -3.63731 8.72532 4
    endloop
  endfacet
  facet normal 0 0 1
    outer loop
      vertex -7.83577 6.34663 4
      vertex -4 6.9282 4
      vertex -5.75 9.95929 4
    endloop
  endfacet
  facet normal -0 0 1
    outer loop
      vertex -7.83577 6.34663 4
      vertex -8 0 4
      vertex -4 6.9282 4
    endloop
  endfacet
  facet normal 0 0 1
    outer loop
      vertex -9.41423 3.61266 4
      vertex -7.83577 6.34663 4
      vertex -9.375 9.01266 4
    endloop
  endfacet
  facet normal -0 0 1
    outer loop
      vertex -1.57846 -9.95929 4
      vertex 3.11769 -12.6253 4
      vertex 1.57846 -9.95929 4
    endloop
  endfacet
  facet normal 0 0 1
    outer loop
      vertex 3.11769 -12.6253 4
      vertex -1.57846 -9.95929 4
      vertex -3.11769 -12.6253 4
    endloop
  endfacet
  facet normal 0 0.977356 0.211604
    outer loop
      vertex -2.42487 10.8253 0
      vertex -5.75 9.95929 4
      vertex -2.92487 9.95929 4
    endloop
  endfacet
  facet normal 0 0.977356 0.211604
    outer loop
      vertex -5.75 9.95929 4
      vertex -2.42487 10.8253 0
      vertex -6.25 10.8253 0
    endloop
  endfacet
  facet normal 0 0.977356 0.211604
    outer loop
      vertex 6.25 10.8253 0
      vertex 2.92487 9.95929 4
      vertex 5.75 9.95929 4
    endloop
  endfacet
  facet normal 0 0.977356 0.211604
    outer loop
      vertex 2.92487 9.95929 4
      vertex 6.25 10.8253 0
      vertex 2.42487 10.8253 0
    endloop
  endfacet
  facet normal 0.846415 0.488678 0.211604
    outer loop
      vertex 9.74795 3.61266 2.66511
      vertex 9.41423 3.61266 4
      vertex 11.5 0 4
    endloop
  endfacet
  facet normal 0.846415 0.488678 0.211604
    outer loop
      vertex 5.75 9.95929 4
      vertex 8.1544 6.89852 1.45097
      vertex 6.25 10.8253 0
    endloop
  endfacet
  facet normal 0.846415 0.488678 0.211604
    outer loop
      vertex 8.1544 6.89852 1.45097
      vertex 5.75 9.95929 4
      vertex 7.83577 6.34663 4
    endloop
  endfacet
  facet normal -0.846415 -0.488678 0.211604
    outer loop
      vertex -10.0874 -2.44663 4
      vertex -11.5 0 4
      vertex -10.2103 -2.65939 3.01735
    endloop
  endfacet
  facet normal -0.846415 -0.488678 0.211604
    outer loop
      vertex -7.85655 -7.51266 1.22404
      vertex -5.75 -9.95929 4
      vertex -7.16256 -7.51266 4
    endloop
  endfacet
  facet normal -0.846415 -0.488678 0.211604
    outer loop
      vertex -5.75 -9.95929 4
      vertex -7.85655 -7.51266 1.22404
      vertex -6.25 -10.8253 0
    endloop
  endfacet
  facet normal 0 -0.977356 0.211604
    outer loop
      vertex 2.07846 -10.8253 0
      vertex 5.75 -9.95929 4
      vertex 1.57846 -9.95929 4
    endloop
  endfacet
  facet normal 0 -0.977356 0.211604
    outer loop
      vertex 5.75 -9.95929 4
      vertex 2.07846 -10.8253 0
      vertex 6.25 -10.8253 0
    endloop
  endfacet
  facet normal 0 -0.977356 0.211604
    outer loop
      vertex -2.07846 -10.8253 0
      vertex -5.75 -9.95929 4
      vertex -6.25 -10.8253 0
    endloop
  endfacet
  facet normal 0 -0.977356 0.211604
    outer loop
      vertex -5.75 -9.95929 4
      vertex -2.07846 -10.8253 0
      vertex -1.57846 -9.95929 4
    endloop
  endfacet
  facet normal 0.846415 -0.488678 0.211604
    outer loop
      vertex 10.2103 -2.65939 3.01735
      vertex 12.5 0 0
      vertex 11.5 0 4
    endloop
  endfacet
  facet normal 0.846415 -0.488678 0.211604
    outer loop
      vertex 12.5 0 0
      vertex 10.2103 -2.65939 3.01735
      vertex 10.5874 -3.31266 0
    endloop
  endfacet
  facet normal 0.846415 -0.488678 0.211603
    outer loop
      vertex 7.85655 -7.51266 1.22404
      vertex 6.25 -10.8253 0
      vertex 8.16256 -7.51266 0
    endloop
  endfacet
  facet normal -0.846415 0.488678 0.211604
    outer loop
      vertex -8.1544 6.89852 1.45097
      vertex -5.75 9.95929 4
      vertex -6.25 10.8253 0
    endloop
  endfacet
  facet normal -0.846415 0.488678 0.211604
    outer loop
      vertex -5.75 9.95929 4
      vertex -8.1544 6.89852 1.45097
      vertex -7.83577 6.34663 4
    endloop
  endfacet
  facet normal -0.846415 0.488678 0.211604
    outer loop
      vertex -9.74795 3.61266 2.66511
      vertex -11.5 0 4
      vertex -9.41423 3.61266 4
    endloop
  endfacet
  facet normal -0.846415 0.488678 0.211604
    outer loop
      vertex -6.25 10.8253 0
      vertex -8.33577 7.21266 0
      vertex -8.1544 6.89852 1.45097
    endloop
  endfacet
  facet normal -0.846415 0.488678 0.211604
    outer loop
      vertex -12.5 0 0
      vertex -9.74795 3.61266 2.66511
      vertex -10.4142 3.61266 0
    endloop
  endfacet
  facet normal -0.846415 0.488678 0.211604
    outer loop
      vertex -9.74795 3.61266 2.66511
      vertex -12.5 0 0
      vertex -11.5 0 4
    endloop
  endfacet
  facet normal 0.846415 -0.488678 0.211604
    outer loop
      vertex 11.5 0 4
      vertex 10.0874 -2.44663 4
      vertex 10.2103 -2.65939 3.01735
    endloop
  endfacet
  facet normal 0.846415 -0.488678 0.211604
    outer loop
      vertex 5.75 -9.95929 4
      vertex 7.85655 -7.51266 1.22404
      vertex 7.16256 -7.51266 4
    endloop
  endfacet
  facet normal 0.846415 -0.488678 0.211604
    outer loop
      vertex 7.85655 -7.51266 1.22404
      vertex 5.75 -9.95929 4
      vertex 6.25 -10.8253 0
    endloop
  endfacet
  facet normal 0 1 0
    outer loop
      vertex -5.73769 -7.51266 4
      vertex -7.85655 -7.51266 1.22404
      vertex -7.16256 -7.51266 4
    endloop
  endfacet
  facet normal 0 1 -0
    outer loop
      vertex -5.73769 -7.51266 0
      vertex -7.85655 -7.51266 1.22404
      vertex -5.73769 -7.51266 4
    endloop
  endfacet
  facet normal 0 1 0
    outer loop
      vertex -7.85655 -7.51266 1.22404
      vertex -5.73769 -7.51266 0
      vertex -8.16256 -7.51266 0
    endloop
  endfacet
  facet normal 0.866025 -0.5 -4.49772e-07
    outer loop
      vertex -10.2103 -2.65939 3.01735
      vertex -9.375 -1.21266 4
      vertex -10.0874 -2.44663 4
    endloop
  endfacet
  facet normal 0.866025 -0.5 0
    outer loop
      vertex -9.375 -1.21266 4
      vertex -10.2103 -2.65939 3.01735
      vertex -9.375 -1.21266 0
    endloop
  endfacet
  facet normal 0.866025 -0.5 1.44897e-07
    outer loop
      vertex -9.375 -1.21266 0
      vertex -10.2103 -2.65939 3.01735
      vertex -10.5874 -3.31266 0
    endloop
  endfacet
  facet normal -0.866025 -0.5 0
    outer loop
      vertex -5.73769 -7.51266 0
      vertex -9.375 -1.21266 4
      vertex -9.375 -1.21266 0
    endloop
  endfacet
  facet normal -0.866025 -0.5 0
    outer loop
      vertex -9.375 -1.21266 4
      vertex -5.73769 -7.51266 0
      vertex -5.73769 -7.51266 4
    endloop
  endfacet
  facet normal 0.866025 -0.5 0
    outer loop
      vertex -3.63731 8.72532 0
      vertex -2.92487 9.95929 4
      vertex -3.63731 8.72532 4
    endloop
  endfacet
  facet normal 0.866025 -0.5 -1.26494e-09
    outer loop
      vertex -2.92487 9.95929 4
      vertex -3.63731 8.72532 0
      vertex -2.42487 10.8253 0
    endloop
  endfacet
  facet normal -0.866025 -0.5 -1.26494e-09
    outer loop
      vertex 3.63731 8.72532 0
      vertex 2.92487 9.95929 4
      vertex 2.42487 10.8253 0
    endloop
  endfacet
  facet normal -0.866025 -0.5 0
    outer loop
      vertex 2.92487 9.95929 4
      vertex 3.63731 8.72532 0
      vertex 3.63731 8.72532 4
    endloop
  endfacet
  facet normal 0 1 -0
    outer loop
      vertex 3.63731 8.72532 0
      vertex -3.63731 8.72532 4
      vertex 3.63731 8.72532 4
    endloop
  endfacet
  facet normal 0 1 0
    outer loop
      vertex -3.63731 8.72532 4
      vertex 3.63731 8.72532 0
      vertex -3.63731 8.72532 0
    endloop
  endfacet
  facet normal -0.866025 -0.5 0
    outer loop
      vertex 10.2103 -2.65939 3.01735
      vertex 9.375 -1.21266 4
      vertex 9.375 -1.21266 0
    endloop
  endfacet
  facet normal -0.866025 -0.5 -4.49772e-07
    outer loop
      vertex 9.375 -1.21266 4
      vertex 10.2103 -2.65939 3.01735
      vertex 10.0874 -2.44663 4
    endloop
  endfacet
  facet normal -0.866025 -0.5 1.44897e-07
    outer loop
      vertex 10.2103 -2.65939 3.01735
      vertex 9.375 -1.21266 0
      vertex 10.5874 -3.31266 0
    endloop
  endfacet
  facet normal 0 1 0
    outer loop
      vertex 7.85655 -7.51266 1.22404
      vertex 5.73769 -7.51266 4
      vertex 7.16256 -7.51266 4
    endloop
  endfacet
  facet normal 0 1 0
    outer loop
      vertex 5.73769 -7.51266 0
      vertex 7.85655 -7.51266 1.22404
      vertex 8.16256 -7.51266 0
    endloop
  endfacet
  facet normal 0 1 0
    outer loop
      vertex 7.85655 -7.51266 1.22404
      vertex 5.73769 -7.51266 0
      vertex 5.73769 -7.51266 4
    endloop
  endfacet
  facet normal 0.866025 -0.5 0
    outer loop
      vertex 5.73769 -7.51266 4
      vertex 9.375 -1.21266 0
      vertex 9.375 -1.21266 4
    endloop
  endfacet
  facet normal 0.866025 -0.5 0
    outer loop
      vertex 9.375 -1.21266 0
      vertex 5.73769 -7.51266 4
      vertex 5.73769 -7.51266 0
    endloop
  endfacet
  facet normal 0.866025 0.5 0
    outer loop
      vertex 12.4927 3.61266 4
      vertex 9.375 9.01266 0
      vertex 9.375 9.01266 4
    endloop
  endfacet
  facet normal 0.866025 0.5 0
    outer loop
      vertex 9.375 9.01266 0
      vertex 12.4927 3.61266 4
      vertex 12.4927 3.61266 0
    endloop
  endfacet
  facet normal 0 -1 0
    outer loop
      vertex 9.74795 3.61266 2.66511
      vertex 12.4927 3.61266 4
      vertex 9.41423 3.61266 4
    endloop
  endfacet
  facet normal 0 -1 0
    outer loop
      vertex 12.4927 3.61266 0
      vertex 9.74795 3.61266 2.66511
      vertex 10.4142 3.61266 0
    endloop
  endfacet
  facet normal 0 -1 0
    outer loop
      vertex 9.74795 3.61266 2.66511
      vertex 12.4927 3.61266 0
      vertex 12.4927 3.61266 4
    endloop
  endfacet
  facet normal -0.866025 0.5 2.67352e-07
    outer loop
      vertex 8.1544 6.89852 1.45097
      vertex 9.375 9.01266 0
      vertex 8.33577 7.21266 0
    endloop
  endfacet
  facet normal -0.866026 0.5 0
    outer loop
      vertex 9.375 9.01266 0
      vertex 8.1544 6.89852 1.45097
      vertex 9.375 9.01266 4
    endloop
  endfacet
  facet normal -0.866025 0.5 -1.5835e-07
    outer loop
      vertex 9.375 9.01266 4
      vertex 8.1544 6.89852 1.45097
      vertex 7.83577 6.34663 4
    endloop
  endfacet
  facet normal 0 -1 0
    outer loop
      vertex -3.11769 -12.6253 0
      vertex 3.11769 -12.6253 4
      vertex -3.11769 -12.6253 4
    endloop
  endfacet
  facet normal 0 -1 -0
    outer loop
      vertex 3.11769 -12.6253 4
      vertex -3.11769 -12.6253 0
      vertex 3.11769 -12.6253 0
    endloop
  endfacet
  facet normal -0.866025 0.5 0
    outer loop
      vertex -3.11769 -12.6253 4
      vertex -2.07846 -10.8253 0
      vertex -3.11769 -12.6253 0
    endloop
  endfacet
  facet normal -0.866025 0.5 1.53801e-08
    outer loop
      vertex -2.07846 -10.8253 0
      vertex -3.11769 -12.6253 4
      vertex -1.57846 -9.95929 4
    endloop
  endfacet
  facet normal 0.866025 0.5 1.53801e-08
    outer loop
      vertex 3.11769 -12.6253 4
      vertex 2.07846 -10.8253 0
      vertex 1.57846 -9.95929 4
    endloop
  endfacet
  facet normal 0.866025 0.5 0
    outer loop
      vertex 2.07846 -10.8253 0
      vertex 3.11769 -12.6253 4
      vertex 3.11769 -12.6253 0
    endloop
  endfacet
  facet normal -0.866025 0.5 0
    outer loop
      vertex -12.4927 3.61266 0
      vertex -9.375 9.01266 4
      vertex -9.375 9.01266 0
    endloop
  endfacet
  facet normal -0.866025 0.5 0
    outer loop
      vertex -9.375 9.01266 4
      vertex -12.4927 3.61266 0
      vertex -12.4927 3.61266 4
    endloop
  endfacet
  facet normal 0.866025 0.5 0
    outer loop
      vertex -8.1544 6.89852 1.45097
      vertex -9.375 9.01266 0
      vertex -9.375 9.01266 4
    endloop
  endfacet
  facet normal 0.866025 0.5 -3.30535e-07
    outer loop
      vertex -9.375 9.01266 0
      vertex -8.1544 6.89852 1.45097
      vertex -8.33577 7.21266 0
    endloop
  endfacet
  facet normal 0.866025 0.5 2.20467e-07
    outer loop
      vertex -8.1544 6.89852 1.45097
      vertex -9.375 9.01266 4
      vertex -7.83577 6.34663 4
    endloop
  endfacet
  facet normal 0 -1 0
    outer loop
      vertex -12.4927 3.61266 4
      vertex -9.74795 3.61266 2.66511
      vertex -9.41423 3.61266 4
    endloop
  endfacet
  facet normal 0 -1 0
    outer loop
      vertex -12.4927 3.61266 0
      vertex -9.74795 3.61266 2.66511
      vertex -12.4927 3.61266 4
    endloop
  endfacet
  facet normal 0 -1 0
    outer loop
      vertex -9.74795 3.61266 2.66511
      vertex -12.4927 3.61266 0
      vertex -10.4142 3.61266 0
    endloop
  endfacet
  facet normal 0.866025 0.5 0
    outer loop
      vertex 8 0 20
      vertex 4 6.9282 4
      vertex 4 6.9282 20
    endloop
  endfacet
  facet normal 0.866025 0.5 0
    outer loop
      vertex 4 6.9282 4
      vertex 8 0 20
      vertex 8 0 4
    endloop
  endfacet
  facet normal -0.866025 0.5 0
    outer loop
      vertex -8 0 4
      vertex -4 6.9282 20
      vertex -4 6.9282 4
    endloop
  endfacet
  facet normal -0.866025 0.5 0
    outer loop
      vertex -4 6.9282 20
      vertex -8 0 4
      vertex -8 0 20
    endloop
  endfacet
  facet normal 0 1 -0
    outer loop
      vertex 4 6.9282 4
      vertex -4 6.9282 20
      vertex 4 6.9282 20
    endloop
  endfacet
  facet normal 0 1 0
    outer loop
      vertex -4 6.9282 20
      vertex 4 6.9282 4
      vertex -4 6.9282 4
    endloop
  endfacet
  facet normal -0 0 1
    outer loop
      vertex 3.03109 1.75 20
      vertex 8 0 20
      vertex 4 6.9282 20
    endloop
  endfacet
  facet normal 0 0 1
    outer loop
      vertex 3.47006 -0.456841 20
      vertex 8 0 20
      vertex 3.5 0 20
    endloop
  endfacet
  facet normal 0 0 1
    outer loop
      vertex 8 0 20
      vertex 3.47006 0.456841 20
      vertex 3.5 0 20
    endloop
  endfacet
  facet normal 0 0 1
    outer loop
      vertex 8 0 20
      vertex 3.38074 0.905867 20
      vertex 3.47006 0.456841 20
    endloop
  endfacet
  facet normal 0 0 1
    outer loop
      vertex 8 0 20
      vertex 3.23358 1.33939 20
      vertex 3.38074 0.905867 20
    endloop
  endfacet
  facet normal 0 0 1
    outer loop
      vertex 8 0 20
      vertex 3.03109 1.75 20
      vertex 3.23358 1.33939 20
    endloop
  endfacet
  facet normal 0 0 1
    outer loop
      vertex 4 6.9282 20
      vertex 2.77674 2.13066 20
      vertex 3.03109 1.75 20
    endloop
  endfacet
  facet normal 0 0 1
    outer loop
      vertex 4 6.9282 20
      vertex 2.47487 2.47487 20
      vertex 2.77674 2.13066 20
    endloop
  endfacet
  facet normal 0 0 1
    outer loop
      vertex 4 6.9282 20
      vertex 2.13066 2.77674 20
      vertex 2.47487 2.47487 20
    endloop
  endfacet
  facet normal 0 0 1
    outer loop
      vertex 4 6.9282 20
      vertex 1.75 3.03109 20
      vertex 2.13066 2.77674 20
    endloop
  endfacet
  facet normal 0 0 1
    outer loop
      vertex 4 6.9282 20
      vertex 1.33939 3.23358 20
      vertex 1.75 3.03109 20
    endloop
  endfacet
  facet normal 0 0 1
    outer loop
      vertex 4 6.9282 20
      vertex 0.905867 3.38074 20
      vertex 1.33939 3.23358 20
    endloop
  endfacet
  facet normal 0 0 1
    outer loop
      vertex 4 6.9282 20
      vertex 0.456841 3.47006 20
      vertex 0.905867 3.38074 20
    endloop
  endfacet
  facet normal 0 0 1
    outer loop
      vertex 4 6.9282 20
      vertex 0 3.5 20
      vertex 0.456841 3.47006 20
    endloop
  endfacet
  facet normal -0 0 1
    outer loop
      vertex -4 6.9282 20
      vertex 0 3.5 20
      vertex 4 6.9282 20
    endloop
  endfacet
  facet normal 0 0 1
    outer loop
      vertex 0 3.5 20
      vertex -4 6.9282 20
      vertex -0.456841 3.47006 20
    endloop
  endfacet
  facet normal 0 0 1
    outer loop
      vertex -0.456841 3.47006 20
      vertex -4 6.9282 20
      vertex -0.905867 3.38074 20
    endloop
  endfacet
  facet normal 0 0 1
    outer loop
      vertex -0.905867 3.38074 20
      vertex -4 6.9282 20
      vertex -1.33939 3.23358 20
    endloop
  endfacet
  facet normal 0 0 1
    outer loop
      vertex -1.33939 3.23358 20
      vertex -4 6.9282 20
      vertex -1.75 3.03109 20
    endloop
  endfacet
  facet normal 0 0 1
    outer loop
      vertex -3.38074 0.905867 20
      vertex -8 0 20
      vertex -3.47006 0.456841 20
    endloop
  endfacet
  facet normal 0 0 1
    outer loop
      vertex -3.23358 1.33939 20
      vertex -8 0 20
      vertex -3.38074 0.905867 20
    endloop
  endfacet
  facet normal 0 0 1
    outer loop
      vertex -3.03109 1.75 20
      vertex -8 0 20
      vertex -3.23358 1.33939 20
    endloop
  endfacet
  facet normal 0 0 1
    outer loop
      vertex -8 0 20
      vertex -3.03109 1.75 20
      vertex -4 6.9282 20
    endloop
  endfacet
  facet normal 0 0 1
    outer loop
      vertex -2.77674 2.13066 20
      vertex -4 6.9282 20
      vertex -3.03109 1.75 20
    endloop
  endfacet
  facet normal 0 0 1
    outer loop
      vertex -2.47487 2.47487 20
      vertex -4 6.9282 20
      vertex -2.77674 2.13066 20
    endloop
  endfacet
  facet normal 0 0 1
    outer loop
      vertex -2.13066 2.77674 20
      vertex -4 6.9282 20
      vertex -2.47487 2.47487 20
    endloop
  endfacet
  facet normal 0 0 1
    outer loop
      vertex -1.75 3.03109 20
      vertex -4 6.9282 20
      vertex -2.13066 2.77674 20
    endloop
  endfacet
  facet normal 0 0 1
    outer loop
      vertex 3.38074 -0.905867 20
      vertex 8 0 20
      vertex 3.47006 -0.456841 20
    endloop
  endfacet
  facet normal 0 0 1
    outer loop
      vertex 3.23358 -1.33939 20
      vertex 8 0 20
      vertex 3.38074 -0.905867 20
    endloop
  endfacet
  facet normal 0 0 1
    outer loop
      vertex 3.03109 -1.75 20
      vertex 8 0 20
      vertex 3.23358 -1.33939 20
    endloop
  endfacet
  facet normal 0 0 1
    outer loop
      vertex 8 0 20
      vertex 3.03109 -1.75 20
      vertex 4 -6.9282 20
    endloop
  endfacet
  facet normal -0 0 1
    outer loop
      vertex 2.77674 -2.13066 20
      vertex 4 -6.9282 20
      vertex 3.03109 -1.75 20
    endloop
  endfacet
  facet normal -0 0 1
    outer loop
      vertex 2.47487 -2.47487 20
      vertex 4 -6.9282 20
      vertex 2.77674 -2.13066 20
    endloop
  endfacet
  facet normal -0 0 1
    outer loop
      vertex 2.13066 -2.77674 20
      vertex 4 -6.9282 20
      vertex 2.47487 -2.47487 20
    endloop
  endfacet
  facet normal -0 0 1
    outer loop
      vertex 1.75 -3.03109 20
      vertex 4 -6.9282 20
      vertex 2.13066 -2.77674 20
    endloop
  endfacet
  facet normal -0 0 1
    outer loop
      vertex 1.33939 -3.23358 20
      vertex 4 -6.9282 20
      vertex 1.75 -3.03109 20
    endloop
  endfacet
  facet normal -0 0 1
    outer loop
      vertex 0.905867 -3.38074 20
      vertex 4 -6.9282 20
      vertex 1.33939 -3.23358 20
    endloop
  endfacet
  facet normal -0 0 1
    outer loop
      vertex 0.456841 -3.47006 20
      vertex 4 -6.9282 20
      vertex 0.905867 -3.38074 20
    endloop
  endfacet
  facet normal -0 0 1
    outer loop
      vertex 0 -3.5 20
      vertex 4 -6.9282 20
      vertex 0.456841 -3.47006 20
    endloop
  endfacet
  facet normal 0 0 1
    outer loop
      vertex -4 -6.9282 20
      vertex 0 -3.5 20
      vertex -0.456841 -3.47006 20
    endloop
  endfacet
  facet normal 0 0 1
    outer loop
      vertex -4 -6.9282 20
      vertex -0.456841 -3.47006 20
      vertex -0.905867 -3.38074 20
    endloop
  endfacet
  facet normal 0 0 1
    outer loop
      vertex -4 -6.9282 20
      vertex -0.905867 -3.38074 20
      vertex -1.33939 -3.23358 20
    endloop
  endfacet
  facet normal 0 0 1
    outer loop
      vertex -4 -6.9282 20
      vertex -1.33939 -3.23358 20
      vertex -1.75 -3.03109 20
    endloop
  endfacet
  facet normal 0 0 1
    outer loop
      vertex -4 -6.9282 20
      vertex -1.75 -3.03109 20
      vertex -2.13066 -2.77674 20
    endloop
  endfacet
  facet normal 0 0 1
    outer loop
      vertex -3.47006 0.456841 20
      vertex -8 0 20
      vertex -3.5 0 20
    endloop
  endfacet
  facet normal 0 0 1
    outer loop
      vertex 0 -3.5 20
      vertex -4 -6.9282 20
      vertex 4 -6.9282 20
    endloop
  endfacet
  facet normal 0 0 1
    outer loop
      vertex -2.47487 -2.47487 20
      vertex -4 -6.9282 20
      vertex -2.13066 -2.77674 20
    endloop
  endfacet
  facet normal 0 0 1
    outer loop
      vertex -2.77674 -2.13066 20
      vertex -4 -6.9282 20
      vertex -2.47487 -2.47487 20
    endloop
  endfacet
  facet normal 0 0 1
    outer loop
      vertex -3.03109 -1.75 20
      vertex -4 -6.9282 20
      vertex -2.77674 -2.13066 20
    endloop
  endfacet
  facet normal 0 0 1
    outer loop
      vertex -8 0 20
      vertex -3.03109 -1.75 20
      vertex -3.23358 -1.33939 20
    endloop
  endfacet
  facet normal 0 0 1
    outer loop
      vertex -8 0 20
      vertex -3.23358 -1.33939 20
      vertex -3.38074 -0.905867 20
    endloop
  endfacet
  facet normal 0 0 1
    outer loop
      vertex -8 0 20
      vertex -3.38074 -0.905867 20
      vertex -3.47006 -0.456841 20
    endloop
  endfacet
  facet normal 0 0 1
    outer loop
      vertex -3.5 0 20
      vertex -8 0 20
      vertex -3.47006 -0.456841 20
    endloop
  endfacet
  facet normal 0 0 1
    outer loop
      vertex -3.03109 -1.75 20
      vertex -8 0 20
      vertex -4 -6.9282 20
    endloop
  endfacet
  facet normal 0.866025 -0.5 0
    outer loop
      vertex 4 -6.9282 20
      vertex 8 0 4
      vertex 8 0 20
    endloop
  endfacet
  facet normal 0.866025 -0.5 0
    outer loop
      vertex 8 0 4
      vertex 4 -6.9282 20
      vertex 4 -6.9282 4
    endloop
  endfacet
  facet normal 0 -1 0
    outer loop
      vertex -4 -6.9282 4
      vertex 4 -6.9282 20
      vertex -4 -6.9282 20
    endloop
  endfacet
  facet normal 0 -1 -0
    outer loop
      vertex 4 -6.9282 20
      vertex -4 -6.9282 4
      vertex 4 -6.9282 4
    endloop
  endfacet
  facet normal -0.866025 -0.5 0
    outer loop
      vertex -4 -6.9282 4
      vertex -8 0 20
      vertex -8 0 4
    endloop
  endfacet
  facet normal -0.866025 -0.5 0
    outer loop
      vertex -8 0 20
      vertex -4 -6.9282 4
      vertex -4 -6.9282 20
    endloop
  endfacet
  facet normal 0.706349 0.0462971 0.706349
    outer loop
      vertex 3.5 0 26.999
      vertex 2.47861 0.326315 27.999
      vertex 2.5 0 27.999
    endloop
  endfacet
  facet normal 0.706349 0.0462973 0.706349
    outer loop
      vertex 3.47006 0.456841 26.999
      vertex 2.47861 0.326315 27.999
      vertex 3.5 0 26.999
    endloop
  endfacet
  facet normal -0.706349 -0.0462971 0.706349
    outer loop
      vertex -2.5 0 27.999
      vertex -3.5 0 26.999
      vertex -2.47861 -0.326315 27.999
    endloop
  endfacet
  facet normal 0.694262 0.138098 0.706349
    outer loop
      vertex 3.38074 0.905867 26.999
      vertex 2.41481 0.647047 27.999
      vertex 2.47861 0.326315 27.999
    endloop
  endfacet
  facet normal 0.634864 0.31308 0.706349
    outer loop
      vertex 3.03109 1.75 26.999
      vertex 2.3097 0.956708 27.999
      vertex 3.23358 1.33939 26.999
    endloop
  endfacet
  facet normal -0.0462971 -0.706349 0.706349
    outer loop
      vertex 0 -2.5 27.999
      vertex -0.326315 -2.47861 27.999
      vertex 0 -3.5 26.999
    endloop
  endfacet
  facet normal -0.0462971 0.706349 0.706349
    outer loop
      vertex 0 3.5 26.999
      vertex -0.326315 2.47861 27.999
      vertex 0 2.5 27.999
    endloop
  endfacet
  facet normal -0.138098 0.694262 0.706349
    outer loop
      vertex -0.326315 2.47861 27.999
      vertex -0.905867 3.38074 26.999
      vertex -0.647047 2.41481 27.999
    endloop
  endfacet
  facet normal -0.694262 -0.138098 0.706349
    outer loop
      vertex -2.47861 -0.326315 27.999
      vertex -3.38074 -0.905867 26.999
      vertex -2.41481 -0.647047 27.999
    endloop
  endfacet
  facet normal -0.532201 -0.466727 0.706348
    outer loop
      vertex -1.76777 -1.76777 27.999
      vertex -2.77674 -2.13066 26.999
      vertex -2.47487 -2.47487 26.999
    endloop
  endfacet
  facet normal 0.588567 -0.393269 0.706349
    outer loop
      vertex 3.03109 -1.75 26.999
      vertex 1.98338 -1.5219 27.999
      vertex 2.77674 -2.13066 26.999
    endloop
  endfacet
  facet normal 0.670298 -0.227536 0.706349
    outer loop
      vertex 3.38074 -0.905867 26.999
      vertex 2.3097 -0.956708 27.999
      vertex 3.23358 -1.33939 26.999
    endloop
  endfacet
  facet normal 0.393269 0.588567 0.706349
    outer loop
      vertex 1.75 3.03109 26.999
      vertex 1.5219 1.98338 27.999
      vertex 2.13066 2.77674 26.999
    endloop
  endfacet
  facet normal 0.694263 0.138097 0.706349
    outer loop
      vertex 3.38074 0.905867 26.999
      vertex 2.47861 0.326315 27.999
      vertex 3.47006 0.456841 26.999
    endloop
  endfacet
  facet normal 0 0 1
    outer loop
      vertex 2.47861 0.326315 27.999
      vertex 2.47861 -0.326315 27.999
      vertex 2.5 0 27.999
    endloop
  endfacet
  facet normal 0 0 1
    outer loop
      vertex 2.41481 0.647047 27.999
      vertex 2.47861 -0.326315 27.999
      vertex 2.47861 0.326315 27.999
    endloop
  endfacet
  facet normal 0 0 1
    outer loop
      vertex 2.41481 0.647047 27.999
      vertex 2.41481 -0.647047 27.999
      vertex 2.47861 -0.326315 27.999
    endloop
  endfacet
  facet normal 0 0 1
    outer loop
      vertex 2.3097 0.956708 27.999
      vertex 2.41481 -0.647047 27.999
      vertex 2.41481 0.647047 27.999
    endloop
  endfacet
  facet normal 0 0 1
    outer loop
      vertex 2.3097 0.956708 27.999
      vertex 2.3097 -0.956708 27.999
      vertex 2.41481 -0.647047 27.999
    endloop
  endfacet
  facet normal 0 0 1
    outer loop
      vertex 2.16506 1.25 27.999
      vertex 2.3097 -0.956708 27.999
      vertex 2.3097 0.956708 27.999
    endloop
  endfacet
  facet normal 0 0 1
    outer loop
      vertex 2.16506 1.25 27.999
      vertex 2.16506 -1.25 27.999
      vertex 2.3097 -0.956708 27.999
    endloop
  endfacet
  facet normal 0 0 1
    outer loop
      vertex 1.98338 1.5219 27.999
      vertex 2.16506 -1.25 27.999
      vertex 2.16506 1.25 27.999
    endloop
  endfacet
  facet normal 0 0 1
    outer loop
      vertex 1.98338 1.5219 27.999
      vertex 1.98338 -1.5219 27.999
      vertex 2.16506 -1.25 27.999
    endloop
  endfacet
  facet normal 0 0 1
    outer loop
      vertex 1.76777 1.76777 27.999
      vertex 1.98338 -1.5219 27.999
      vertex 1.98338 1.5219 27.999
    endloop
  endfacet
  facet normal 0 0 1
    outer loop
      vertex 1.76777 1.76777 27.999
      vertex 1.76777 -1.76777 27.999
      vertex 1.98338 -1.5219 27.999
    endloop
  endfacet
  facet normal 0 0 1
    outer loop
      vertex 1.5219 1.98338 27.999
      vertex 1.76777 -1.76777 27.999
      vertex 1.76777 1.76777 27.999
    endloop
  endfacet
  facet normal 0 0 1
    outer loop
      vertex 1.5219 1.98338 27.999
      vertex 1.5219 -1.98338 27.999
      vertex 1.76777 -1.76777 27.999
    endloop
  endfacet
  facet normal 0 0 1
    outer loop
      vertex 1.25 2.16506 27.999
      vertex 1.5219 -1.98338 27.999
      vertex 1.5219 1.98338 27.999
    endloop
  endfacet
  facet normal 0 0 1
    outer loop
      vertex 1.25 2.16506 27.999
      vertex 1.25 -2.16506 27.999
      vertex 1.5219 -1.98338 27.999
    endloop
  endfacet
  facet normal 0 0 1
    outer loop
      vertex 0.956708 2.3097 27.999
      vertex 1.25 -2.16506 27.999
      vertex 1.25 2.16506 27.999
    endloop
  endfacet
  facet normal 0 0 1
    outer loop
      vertex 0.956708 2.3097 27.999
      vertex 0.956708 -2.3097 27.999
      vertex 1.25 -2.16506 27.999
    endloop
  endfacet
  facet normal 0 0 1
    outer loop
      vertex 0.647047 2.41481 27.999
      vertex 0.956708 -2.3097 27.999
      vertex 0.956708 2.3097 27.999
    endloop
  endfacet
  facet normal 0 0 1
    outer loop
      vertex 0.647047 2.41481 27.999
      vertex 0.647047 -2.41481 27.999
      vertex 0.956708 -2.3097 27.999
    endloop
  endfacet
  facet normal 0 0 1
    outer loop
      vertex 0.326315 2.47861 27.999
      vertex 0.647047 -2.41481 27.999
      vertex 0.647047 2.41481 27.999
    endloop
  endfacet
  facet normal 0 0 1
    outer loop
      vertex 0.326315 2.47861 27.999
      vertex 0.326315 -2.47861 27.999
      vertex 0.647047 -2.41481 27.999
    endloop
  endfacet
  facet normal 0 0 1
    outer loop
      vertex 0 2.5 27.999
      vertex 0.326315 -2.47861 27.999
      vertex 0.326315 2.47861 27.999
    endloop
  endfacet
  facet normal 0 0 1
    outer loop
      vertex 0 2.5 27.999
      vertex 0 -2.5 27.999
      vertex 0.326315 -2.47861 27.999
    endloop
  endfacet
  facet normal -0 0 1
    outer loop
      vertex -0.326315 2.47861 27.999
      vertex 0 -2.5 27.999
      vertex 0 2.5 27.999
    endloop
  endfacet
  facet normal 0 0 1
    outer loop
      vertex -0.326315 2.47861 27.999
      vertex -0.326315 -2.47861 27.999
      vertex 0 -2.5 27.999
    endloop
  endfacet
  facet normal -0 0 1
    outer loop
      vertex -0.647047 2.41481 27.999
      vertex -0.326315 -2.47861 27.999
      vertex -0.326315 2.47861 27.999
    endloop
  endfacet
  facet normal 0 0 1
    outer loop
      vertex -0.647047 2.41481 27.999
      vertex -0.647047 -2.41481 27.999
      vertex -0.326315 -2.47861 27.999
    endloop
  endfacet
  facet normal -0 0 1
    outer loop
      vertex -0.956708 2.3097 27.999
      vertex -0.647047 -2.41481 27.999
      vertex -0.647047 2.41481 27.999
    endloop
  endfacet
  facet normal 0 0 1
    outer loop
      vertex -0.956708 2.3097 27.999
      vertex -0.956708 -2.3097 27.999
      vertex -0.647047 -2.41481 27.999
    endloop
  endfacet
  facet normal -0 0 1
    outer loop
      vertex -1.25 2.16506 27.999
      vertex -0.956708 -2.3097 27.999
      vertex -0.956708 2.3097 27.999
    endloop
  endfacet
  facet normal 0 0 1
    outer loop
      vertex -1.25 2.16506 27.999
      vertex -1.25 -2.16506 27.999
      vertex -0.956708 -2.3097 27.999
    endloop
  endfacet
  facet normal -0 0 1
    outer loop
      vertex -1.5219 1.98338 27.999
      vertex -1.25 -2.16506 27.999
      vertex -1.25 2.16506 27.999
    endloop
  endfacet
  facet normal 0 0 1
    outer loop
      vertex -1.5219 1.98338 27.999
      vertex -1.5219 -1.98338 27.999
      vertex -1.25 -2.16506 27.999
    endloop
  endfacet
  facet normal -0 0 1
    outer loop
      vertex -1.76777 1.76777 27.999
      vertex -1.5219 -1.98338 27.999
      vertex -1.5219 1.98338 27.999
    endloop
  endfacet
  facet normal 0 0 1
    outer loop
      vertex -1.76777 1.76777 27.999
      vertex -1.76777 -1.76777 27.999
      vertex -1.5219 -1.98338 27.999
    endloop
  endfacet
  facet normal -0 0 1
    outer loop
      vertex -1.98338 1.5219 27.999
      vertex -1.76777 -1.76777 27.999
      vertex -1.76777 1.76777 27.999
    endloop
  endfacet
  facet normal 0 0 1
    outer loop
      vertex -1.98338 1.5219 27.999
      vertex -1.98338 -1.5219 27.999
      vertex -1.76777 -1.76777 27.999
    endloop
  endfacet
  facet normal -0 0 1
    outer loop
      vertex -2.16506 1.25 27.999
      vertex -1.98338 -1.5219 27.999
      vertex -1.98338 1.5219 27.999
    endloop
  endfacet
  facet normal 0 0 1
    outer loop
      vertex -2.16506 1.25 27.999
      vertex -2.16506 -1.25 27.999
      vertex -1.98338 -1.5219 27.999
    endloop
  endfacet
  facet normal -0 0 1
    outer loop
      vertex -2.3097 0.956708 27.999
      vertex -2.16506 -1.25 27.999
      vertex -2.16506 1.25 27.999
    endloop
  endfacet
  facet normal 0 0 1
    outer loop
      vertex -2.3097 0.956708 27.999
      vertex -2.3097 -0.956708 27.999
      vertex -2.16506 -1.25 27.999
    endloop
  endfacet
  facet normal -0 0 1
    outer loop
      vertex -2.41481 0.647047 27.999
      vertex -2.3097 -0.956708 27.999
      vertex -2.3097 0.956708 27.999
    endloop
  endfacet
  facet normal 0 0 1
    outer loop
      vertex -2.41481 0.647047 27.999
      vertex -2.41481 -0.647047 27.999
      vertex -2.3097 -0.956708 27.999
    endloop
  endfacet
  facet normal -0 0 1
    outer loop
      vertex -2.47861 0.326315 27.999
      vertex -2.41481 -0.647047 27.999
      vertex -2.41481 0.647047 27.999
    endloop
  endfacet
  facet normal 0 0 1
    outer loop
      vertex -2.47861 0.326315 27.999
      vertex -2.47861 -0.326315 27.999
      vertex -2.41481 -0.647047 27.999
    endloop
  endfacet
  facet normal 0 -0 1
    outer loop
      vertex -2.47861 -0.326315 27.999
      vertex -2.47861 0.326315 27.999
      vertex -2.5 0 27.999
    endloop
  endfacet
  facet normal -0.670298 -0.227536 0.706349
    outer loop
      vertex -2.3097 -0.956708 27.999
      vertex -3.38074 -0.905867 26.999
      vertex -3.23358 -1.33939 26.999
    endloop
  endfacet
  facet normal -0.532201 -0.466726 0.706349
    outer loop
      vertex -1.98338 -1.5219 27.999
      vertex -2.77674 -2.13066 26.999
      vertex -1.76777 -1.76777 27.999
    endloop
  endfacet
  facet normal 0.0462973 -0.706349 0.706349
    outer loop
      vertex 0.326315 -2.47861 27.999
      vertex 0 -3.5 26.999
      vertex 0.456841 -3.47006 26.999
    endloop
  endfacet
  facet normal 0.138097 -0.694263 0.706349
    outer loop
      vertex 0.905867 -3.38074 26.999
      vertex 0.326315 -2.47861 27.999
      vertex 0.456841 -3.47006 26.999
    endloop
  endfacet
  facet normal 0.466727 -0.532201 0.706348
    outer loop
      vertex 2.47487 -2.47487 26.999
      vertex 1.76777 -1.76777 27.999
      vertex 2.13066 -2.77674 26.999
    endloop
  endfacet
  facet normal 0.694262 -0.138098 0.706349
    outer loop
      vertex 2.47861 -0.326315 27.999
      vertex 2.41481 -0.647047 27.999
      vertex 3.38074 -0.905867 26.999
    endloop
  endfacet
  facet normal 0.694263 -0.138097 0.706349
    outer loop
      vertex 3.47006 -0.456841 26.999
      vertex 2.47861 -0.326315 27.999
      vertex 3.38074 -0.905867 26.999
    endloop
  endfacet
  facet normal -0.706349 0.0462971 0.706349
    outer loop
      vertex -2.47861 0.326315 27.999
      vertex -3.5 0 26.999
      vertex -2.5 0 27.999
    endloop
  endfacet
  facet normal -0.588568 0.393268 0.706349
    outer loop
      vertex -2.77674 2.13066 26.999
      vertex -3.03109 1.75 26.999
      vertex -1.98338 1.5219 27.999
    endloop
  endfacet
  facet normal -0.31308 0.634864 0.706349
    outer loop
      vertex -1.33939 3.23358 26.999
      vertex -1.75 3.03109 26.999
      vertex -0.956708 2.3097 27.999
    endloop
  endfacet
  facet normal 0.634864 0.31308 0.706349
    outer loop
      vertex 3.03109 1.75 26.999
      vertex 2.16506 1.25 27.999
      vertex 2.3097 0.956708 27.999
    endloop
  endfacet
  facet normal 0.588568 0.393267 0.706349
    outer loop
      vertex 3.03109 1.75 26.999
      vertex 1.98338 1.5219 27.999
      vertex 2.16506 1.25 27.999
    endloop
  endfacet
  facet normal 0.0462973 0.706349 0.706349
    outer loop
      vertex 0.456841 3.47006 26.999
      vertex 0 3.5 26.999
      vertex 0.326315 2.47861 27.999
    endloop
  endfacet
  facet normal 0.313079 0.634864 0.706349
    outer loop
      vertex 1.33939 3.23358 26.999
      vertex 0.956708 2.3097 27.999
      vertex 1.75 3.03109 26.999
    endloop
  endfacet
  facet normal -0.694263 -0.138097 0.706349
    outer loop
      vertex -2.47861 -0.326315 27.999
      vertex -3.47006 -0.456841 26.999
      vertex -3.38074 -0.905867 26.999
    endloop
  endfacet
  facet normal -0.706349 -0.0462973 0.706349
    outer loop
      vertex -2.47861 -0.326315 27.999
      vertex -3.5 0 26.999
      vertex -3.47006 -0.456841 26.999
    endloop
  endfacet
  facet normal -0.313079 -0.634864 0.706349
    outer loop
      vertex -0.956708 -2.3097 27.999
      vertex -1.75 -3.03109 26.999
      vertex -1.33939 -3.23358 26.999
    endloop
  endfacet
  facet normal -0.227536 -0.670298 0.706349
    outer loop
      vertex -0.956708 -2.3097 27.999
      vertex -1.33939 -3.23358 26.999
      vertex -0.905867 -3.38074 26.999
    endloop
  endfacet
  facet normal -0.670298 -0.227536 0.706349
    outer loop
      vertex -2.41481 -0.647047 27.999
      vertex -3.38074 -0.905867 26.999
      vertex -2.3097 -0.956708 27.999
    endloop
  endfacet
  facet normal -0.634864 -0.31308 0.706349
    outer loop
      vertex -2.3097 -0.956708 27.999
      vertex -3.23358 -1.33939 26.999
      vertex -3.03109 -1.75 26.999
    endloop
  endfacet
  facet normal 0.227536 -0.670298 0.706349
    outer loop
      vertex 0.956708 -2.3097 27.999
      vertex 0.647047 -2.41481 27.999
      vertex 0.905867 -3.38074 26.999
    endloop
  endfacet
  facet normal 0.138098 -0.694262 0.706349
    outer loop
      vertex 0.647047 -2.41481 27.999
      vertex 0.326315 -2.47861 27.999
      vertex 0.905867 -3.38074 26.999
    endloop
  endfacet
  facet normal 0.227536 -0.670298 0.706349
    outer loop
      vertex 0.956708 -2.3097 27.999
      vertex 0.905867 -3.38074 26.999
      vertex 1.33939 -3.23358 26.999
    endloop
  endfacet
  facet normal 0.313079 -0.634864 0.706349
    outer loop
      vertex 1.75 -3.03109 26.999
      vertex 0.956708 -2.3097 27.999
      vertex 1.33939 -3.23358 26.999
    endloop
  endfacet
  facet normal 0.532201 -0.466726 0.706349
    outer loop
      vertex 1.98338 -1.5219 27.999
      vertex 1.76777 -1.76777 27.999
      vertex 2.77674 -2.13066 26.999
    endloop
  endfacet
  facet normal 0.532201 -0.466727 0.706348
    outer loop
      vertex 2.77674 -2.13066 26.999
      vertex 1.76777 -1.76777 27.999
      vertex 2.47487 -2.47487 26.999
    endloop
  endfacet
  facet normal 0.588567 -0.393268 0.706349
    outer loop
      vertex 2.16506 -1.25 27.999
      vertex 1.98338 -1.5219 27.999
      vertex 3.03109 -1.75 26.999
    endloop
  endfacet
  facet normal 0.670298 -0.227536 0.706349
    outer loop
      vertex 2.41481 -0.647047 27.999
      vertex 2.3097 -0.956708 27.999
      vertex 3.38074 -0.905867 26.999
    endloop
  endfacet
  facet normal 0.706349 -0.0462973 0.706349
    outer loop
      vertex 3.5 0 26.999
      vertex 2.47861 -0.326315 27.999
      vertex 3.47006 -0.456841 26.999
    endloop
  endfacet
  facet normal 0.706349 -0.0462971 0.706349
    outer loop
      vertex 2.5 0 27.999
      vertex 2.47861 -0.326315 27.999
      vertex 3.5 0 26.999
    endloop
  endfacet
  facet normal -0.706349 0.0462973 0.706349
    outer loop
      vertex -3.47006 0.456841 26.999
      vertex -3.5 0 26.999
      vertex -2.47861 0.326315 27.999
    endloop
  endfacet
  facet normal -0.694262 0.138098 0.706349
    outer loop
      vertex -2.41481 0.647047 27.999
      vertex -3.38074 0.905867 26.999
      vertex -2.47861 0.326315 27.999
    endloop
  endfacet
  facet normal -0.670298 0.227536 0.706349
    outer loop
      vertex -2.3097 0.956708 27.999
      vertex -3.38074 0.905867 26.999
      vertex -2.41481 0.647047 27.999
    endloop
  endfacet
  facet normal -0.227536 0.670298 0.706349
    outer loop
      vertex -0.905867 3.38074 26.999
      vertex -1.33939 3.23358 26.999
      vertex -0.956708 2.3097 27.999
    endloop
  endfacet
  facet normal -0.138097 0.694263 0.706349
    outer loop
      vertex -0.456841 3.47006 26.999
      vertex -0.905867 3.38074 26.999
      vertex -0.326315 2.47861 27.999
    endloop
  endfacet
  facet normal -0.0462973 0.706349 0.706349
    outer loop
      vertex 0 3.5 26.999
      vertex -0.456841 3.47006 26.999
      vertex -0.326315 2.47861 27.999
    endloop
  endfacet
  facet normal 0.670298 0.227536 0.706349
    outer loop
      vertex 3.38074 0.905867 26.999
      vertex 2.3097 0.956708 27.999
      vertex 2.41481 0.647047 27.999
    endloop
  endfacet
  facet normal 0.670298 0.227536 0.706349
    outer loop
      vertex 3.23358 1.33939 26.999
      vertex 2.3097 0.956708 27.999
      vertex 3.38074 0.905867 26.999
    endloop
  endfacet
  facet normal 0.532201 0.466727 0.706348
    outer loop
      vertex 2.47487 2.47487 26.999
      vertex 1.76777 1.76777 27.999
      vertex 2.77674 2.13066 26.999
    endloop
  endfacet
  facet normal 0.0462971 0.706349 0.706349
    outer loop
      vertex 0 3.5 26.999
      vertex 0 2.5 27.999
      vertex 0.326315 2.47861 27.999
    endloop
  endfacet
  facet normal 0.227536 0.670298 0.706349
    outer loop
      vertex 0.905867 3.38074 26.999
      vertex 0.647047 2.41481 27.999
      vertex 0.956708 2.3097 27.999
    endloop
  endfacet
  facet normal 0.227536 0.670298 0.706349
    outer loop
      vertex 1.33939 3.23358 26.999
      vertex 0.905867 3.38074 26.999
      vertex 0.956708 2.3097 27.999
    endloop
  endfacet
  facet normal 0.466726 0.532201 0.706349
    outer loop
      vertex 2.13066 2.77674 26.999
      vertex 1.5219 1.98338 27.999
      vertex 1.76777 1.76777 27.999
    endloop
  endfacet
  facet normal 0.466727 0.532201 0.706348
    outer loop
      vertex 2.13066 2.77674 26.999
      vertex 1.76777 1.76777 27.999
      vertex 2.47487 2.47487 26.999
    endloop
  endfacet
  facet normal -0.227536 -0.670298 0.706349
    outer loop
      vertex -0.647047 -2.41481 27.999
      vertex -0.956708 -2.3097 27.999
      vertex -0.905867 -3.38074 26.999
    endloop
  endfacet
  facet normal -0.138098 -0.694262 0.706349
    outer loop
      vertex -0.647047 -2.41481 27.999
      vertex -0.905867 -3.38074 26.999
      vertex -0.326315 -2.47861 27.999
    endloop
  endfacet
  facet normal -0.393268 -0.588567 0.706349
    outer loop
      vertex -1.5219 -1.98338 27.999
      vertex -1.75 -3.03109 26.999
      vertex -1.25 -2.16506 27.999
    endloop
  endfacet
  facet normal -0.31308 -0.634864 0.706349
    outer loop
      vertex -1.25 -2.16506 27.999
      vertex -1.75 -3.03109 26.999
      vertex -0.956708 -2.3097 27.999
    endloop
  endfacet
  facet normal -0.466727 -0.532201 0.706348
    outer loop
      vertex -1.76777 -1.76777 27.999
      vertex -2.47487 -2.47487 26.999
      vertex -2.13066 -2.77674 26.999
    endloop
  endfacet
  facet normal -0.588568 -0.393268 0.706349
    outer loop
      vertex -1.98338 -1.5219 27.999
      vertex -3.03109 -1.75 26.999
      vertex -2.77674 -2.13066 26.999
    endloop
  endfacet
  facet normal 0.0462971 -0.706349 0.706349
    outer loop
      vertex 0 -2.5 27.999
      vertex 0 -3.5 26.999
      vertex 0.326315 -2.47861 27.999
    endloop
  endfacet
  facet normal 0.31308 -0.634864 0.706349
    outer loop
      vertex 1.25 -2.16506 27.999
      vertex 0.956708 -2.3097 27.999
      vertex 1.75 -3.03109 26.999
    endloop
  endfacet
  facet normal 0.393268 -0.588567 0.706349
    outer loop
      vertex 1.5219 -1.98338 27.999
      vertex 1.25 -2.16506 27.999
      vertex 1.75 -3.03109 26.999
    endloop
  endfacet
  facet normal 0.634864 -0.31308 0.706349
    outer loop
      vertex 2.3097 -0.956708 27.999
      vertex 2.16506 -1.25 27.999
      vertex 3.03109 -1.75 26.999
    endloop
  endfacet
  facet normal 0.634864 -0.313079 0.706349
    outer loop
      vertex 3.23358 -1.33939 26.999
      vertex 2.3097 -0.956708 27.999
      vertex 3.03109 -1.75 26.999
    endloop
  endfacet
  facet normal -0.670298 0.227536 0.706349
    outer loop
      vertex -3.23358 1.33939 26.999
      vertex -3.38074 0.905867 26.999
      vertex -2.3097 0.956708 27.999
    endloop
  endfacet
  facet normal -0.634864 0.31308 0.706349
    outer loop
      vertex -3.03109 1.75 26.999
      vertex -3.23358 1.33939 26.999
      vertex -2.3097 0.956708 27.999
    endloop
  endfacet
  facet normal -0.466727 0.532201 0.706348
    outer loop
      vertex -2.13066 2.77674 26.999
      vertex -2.47487 2.47487 26.999
      vertex -1.76777 1.76777 27.999
    endloop
  endfacet
  facet normal -0.31308 0.634864 0.706349
    outer loop
      vertex -0.956708 2.3097 27.999
      vertex -1.75 3.03109 26.999
      vertex -1.25 2.16506 27.999
    endloop
  endfacet
  facet normal 0.588568 0.393268 0.706349
    outer loop
      vertex 2.77674 2.13066 26.999
      vertex 1.98338 1.5219 27.999
      vertex 3.03109 1.75 26.999
    endloop
  endfacet
  facet normal 0.532201 0.466726 0.706349
    outer loop
      vertex 2.77674 2.13066 26.999
      vertex 1.76777 1.76777 27.999
      vertex 1.98338 1.5219 27.999
    endloop
  endfacet
  facet normal 0.393268 0.588567 0.706349
    outer loop
      vertex 1.75 3.03109 26.999
      vertex 1.25 2.16506 27.999
      vertex 1.5219 1.98338 27.999
    endloop
  endfacet
  facet normal 0.31308 0.634864 0.706349
    outer loop
      vertex 1.75 3.03109 26.999
      vertex 0.956708 2.3097 27.999
      vertex 1.25 2.16506 27.999
    endloop
  endfacet
  facet normal 0.138097 0.694263 0.706349
    outer loop
      vertex 0.456841 3.47006 26.999
      vertex 0.326315 2.47861 27.999
      vertex 0.905867 3.38074 26.999
    endloop
  endfacet
  facet normal 0.138098 0.694262 0.706349
    outer loop
      vertex 0.905867 3.38074 26.999
      vertex 0.326315 2.47861 27.999
      vertex 0.647047 2.41481 27.999
    endloop
  endfacet
  facet normal -0.138097 -0.694263 0.706349
    outer loop
      vertex -0.326315 -2.47861 27.999
      vertex -0.905867 -3.38074 26.999
      vertex -0.456841 -3.47006 26.999
    endloop
  endfacet
  facet normal -0.0462973 -0.706349 0.706349
    outer loop
      vertex -0.326315 -2.47861 27.999
      vertex -0.456841 -3.47006 26.999
      vertex 0 -3.5 26.999
    endloop
  endfacet
  facet normal -0.466726 -0.532201 0.706349
    outer loop
      vertex -1.76777 -1.76777 27.999
      vertex -2.13066 -2.77674 26.999
      vertex -1.5219 -1.98338 27.999
    endloop
  endfacet
  facet normal -0.393269 -0.588567 0.706349
    outer loop
      vertex -1.5219 -1.98338 27.999
      vertex -2.13066 -2.77674 26.999
      vertex -1.75 -3.03109 26.999
    endloop
  endfacet
  facet normal -0.634864 -0.31308 0.706349
    outer loop
      vertex -2.3097 -0.956708 27.999
      vertex -3.03109 -1.75 26.999
      vertex -2.16506 -1.25 27.999
    endloop
  endfacet
  facet normal -0.588568 -0.393267 0.706349
    outer loop
      vertex -2.16506 -1.25 27.999
      vertex -3.03109 -1.75 26.999
      vertex -1.98338 -1.5219 27.999
    endloop
  endfacet
  facet normal 0.393269 -0.588567 0.706349
    outer loop
      vertex 2.13066 -2.77674 26.999
      vertex 1.5219 -1.98338 27.999
      vertex 1.75 -3.03109 26.999
    endloop
  endfacet
  facet normal 0.466726 -0.532201 0.706349
    outer loop
      vertex 1.76777 -1.76777 27.999
      vertex 1.5219 -1.98338 27.999
      vertex 2.13066 -2.77674 26.999
    endloop
  endfacet
  facet normal -0.694263 0.138097 0.706349
    outer loop
      vertex -3.38074 0.905867 26.999
      vertex -3.47006 0.456841 26.999
      vertex -2.47861 0.326315 27.999
    endloop
  endfacet
  facet normal -0.588568 0.393267 0.706349
    outer loop
      vertex -1.98338 1.5219 27.999
      vertex -3.03109 1.75 26.999
      vertex -2.16506 1.25 27.999
    endloop
  endfacet
  facet normal -0.634864 0.31308 0.706349
    outer loop
      vertex -2.16506 1.25 27.999
      vertex -3.03109 1.75 26.999
      vertex -2.3097 0.956708 27.999
    endloop
  endfacet
  facet normal -0.532201 0.466726 0.706349
    outer loop
      vertex -1.76777 1.76777 27.999
      vertex -2.77674 2.13066 26.999
      vertex -1.98338 1.5219 27.999
    endloop
  endfacet
  facet normal -0.532201 0.466727 0.706348
    outer loop
      vertex -2.47487 2.47487 26.999
      vertex -2.77674 2.13066 26.999
      vertex -1.76777 1.76777 27.999
    endloop
  endfacet
  facet normal -0.393267 0.588568 0.706349
    outer loop
      vertex -1.25 2.16506 27.999
      vertex -1.75 3.03109 26.999
      vertex -1.5219 1.98338 27.999
    endloop
  endfacet
  facet normal -0.227536 0.670298 0.706349
    outer loop
      vertex -0.905867 3.38074 26.999
      vertex -0.956708 2.3097 27.999
      vertex -0.647047 2.41481 27.999
    endloop
  endfacet
  facet normal -0.393268 0.588568 0.706349
    outer loop
      vertex -1.75 3.03109 26.999
      vertex -2.13066 2.77674 26.999
      vertex -1.5219 1.98338 27.999
    endloop
  endfacet
  facet normal -0.466726 0.532201 0.706349
    outer loop
      vertex -1.5219 1.98338 27.999
      vertex -2.13066 2.77674 26.999
      vertex -1.76777 1.76777 27.999
    endloop
  endfacet
  facet normal 0.997859 0.0654042 0
    outer loop
      vertex 3.5 0 26.999
      vertex 3.47006 0.456841 20
      vertex 3.47006 0.456841 26.999
    endloop
  endfacet
  facet normal 0.997859 0.0654042 0
    outer loop
      vertex 3.47006 0.456841 20
      vertex 3.5 0 26.999
      vertex 3.5 0 20
    endloop
  endfacet
  facet normal -0.997859 0.0654042 0
    outer loop
      vertex -3.5 0 20
      vertex -3.47006 0.456841 26.999
      vertex -3.47006 0.456841 20
    endloop
  endfacet
  facet normal -0.997859 0.0654042 0
    outer loop
      vertex -3.47006 0.456841 26.999
      vertex -3.5 0 20
      vertex -3.5 0 26.999
    endloop
  endfacet
  facet normal 0.0654042 0.997859 -0
    outer loop
      vertex 0.456841 3.47006 20
      vertex 0 3.5 26.999
      vertex 0.456841 3.47006 26.999
    endloop
  endfacet
  facet normal 0.0654042 0.997859 0
    outer loop
      vertex 0 3.5 26.999
      vertex 0.456841 3.47006 20
      vertex 0 3.5 20
    endloop
  endfacet
  facet normal 0.75184 0.659346 0
    outer loop
      vertex 2.77674 2.13066 26.999
      vertex 2.47487 2.47487 20
      vertex 2.47487 2.47487 26.999
    endloop
  endfacet
  facet normal 0.75184 0.659346 0
    outer loop
      vertex 2.47487 2.47487 20
      vertex 2.77674 2.13066 26.999
      vertex 2.77674 2.13066 20
    endloop
  endfacet
  facet normal -0.659346 0.75184 0
    outer loop
      vertex -2.13066 2.77674 20
      vertex -2.47487 2.47487 26.999
      vertex -2.13066 2.77674 26.999
    endloop
  endfacet
  facet normal -0.659346 0.75184 0
    outer loop
      vertex -2.47487 2.47487 26.999
      vertex -2.13066 2.77674 20
      vertex -2.47487 2.47487 20
    endloop
  endfacet
  facet normal -0.32144 0.94693 0
    outer loop
      vertex -0.905867 3.38074 20
      vertex -1.33939 3.23358 26.999
      vertex -0.905867 3.38074 26.999
    endloop
  endfacet
  facet normal -0.32144 0.94693 0
    outer loop
      vertex -1.33939 3.23358 26.999
      vertex -0.905867 3.38074 20
      vertex -1.33939 3.23358 20
    endloop
  endfacet
  facet normal -0.83147 -0.55557 0
    outer loop
      vertex -2.77674 -2.13066 20
      vertex -3.03109 -1.75 26.999
      vertex -3.03109 -1.75 20
    endloop
  endfacet
  facet normal -0.83147 -0.55557 0
    outer loop
      vertex -3.03109 -1.75 26.999
      vertex -2.77674 -2.13066 20
      vertex -2.77674 -2.13066 26.999
    endloop
  endfacet
  facet normal 0.94693 0.32144 0
    outer loop
      vertex 3.38074 0.905867 26.999
      vertex 3.23358 1.33939 20
      vertex 3.23358 1.33939 26.999
    endloop
  endfacet
  facet normal 0.94693 0.32144 0
    outer loop
      vertex 3.23358 1.33939 20
      vertex 3.38074 0.905867 26.999
      vertex 3.38074 0.905867 20
    endloop
  endfacet
  facet normal 0.980785 0.19509 0
    outer loop
      vertex 3.47006 0.456841 26.999
      vertex 3.38074 0.905867 20
      vertex 3.38074 0.905867 26.999
    endloop
  endfacet
  facet normal 0.980785 0.19509 0
    outer loop
      vertex 3.38074 0.905867 20
      vertex 3.47006 0.456841 26.999
      vertex 3.47006 0.456841 20
    endloop
  endfacet
  facet normal 0.83147 0.55557 0
    outer loop
      vertex 3.03109 1.75 26.999
      vertex 2.77674 2.13066 20
      vertex 2.77674 2.13066 26.999
    endloop
  endfacet
  facet normal 0.83147 0.55557 0
    outer loop
      vertex 2.77674 2.13066 20
      vertex 3.03109 1.75 26.999
      vertex 3.03109 1.75 20
    endloop
  endfacet
  facet normal 0.442287 0.896873 -0
    outer loop
      vertex 1.75 3.03109 20
      vertex 1.33939 3.23358 26.999
      vertex 1.75 3.03109 26.999
    endloop
  endfacet
  facet normal 0.442287 0.896873 0
    outer loop
      vertex 1.33939 3.23358 26.999
      vertex 1.75 3.03109 20
      vertex 1.33939 3.23358 20
    endloop
  endfacet
  facet normal 0.32144 0.94693 -0
    outer loop
      vertex 1.33939 3.23358 20
      vertex 0.905867 3.38074 26.999
      vertex 1.33939 3.23358 26.999
    endloop
  endfacet
  facet normal 0.32144 0.94693 0
    outer loop
      vertex 0.905867 3.38074 26.999
      vertex 1.33939 3.23358 20
      vertex 0.905867 3.38074 20
    endloop
  endfacet
  facet normal 0.659346 0.75184 -0
    outer loop
      vertex 2.47487 2.47487 20
      vertex 2.13066 2.77674 26.999
      vertex 2.47487 2.47487 26.999
    endloop
  endfacet
  facet normal 0.659346 0.75184 0
    outer loop
      vertex 2.13066 2.77674 26.999
      vertex 2.47487 2.47487 20
      vertex 2.13066 2.77674 20
    endloop
  endfacet
  facet normal -0.896873 0.442288 0
    outer loop
      vertex -3.23358 1.33939 20
      vertex -3.03109 1.75 26.999
      vertex -3.03109 1.75 20
    endloop
  endfacet
  facet normal -0.896873 0.442288 0
    outer loop
      vertex -3.03109 1.75 26.999
      vertex -3.23358 1.33939 20
      vertex -3.23358 1.33939 26.999
    endloop
  endfacet
  facet normal -0.83147 0.55557 0
    outer loop
      vertex -3.03109 1.75 20
      vertex -2.77674 2.13066 26.999
      vertex -2.77674 2.13066 20
    endloop
  endfacet
  facet normal -0.83147 0.55557 0
    outer loop
      vertex -2.77674 2.13066 26.999
      vertex -3.03109 1.75 20
      vertex -3.03109 1.75 26.999
    endloop
  endfacet
  facet normal -0.94693 0.32144 0
    outer loop
      vertex -3.38074 0.905867 20
      vertex -3.23358 1.33939 26.999
      vertex -3.23358 1.33939 20
    endloop
  endfacet
  facet normal -0.94693 0.32144 0
    outer loop
      vertex -3.23358 1.33939 26.999
      vertex -3.38074 0.905867 20
      vertex -3.38074 0.905867 26.999
    endloop
  endfacet
  facet normal -0.442288 0.896873 0
    outer loop
      vertex -1.33939 3.23358 20
      vertex -1.75 3.03109 26.999
      vertex -1.33939 3.23358 26.999
    endloop
  endfacet
  facet normal -0.442288 0.896873 0
    outer loop
      vertex -1.75 3.03109 26.999
      vertex -1.33939 3.23358 20
      vertex -1.75 3.03109 20
    endloop
  endfacet
  facet normal -0.0654042 0.997859 0
    outer loop
      vertex 0 3.5 20
      vertex -0.456841 3.47006 26.999
      vertex 0 3.5 26.999
    endloop
  endfacet
  facet normal -0.0654042 0.997859 0
    outer loop
      vertex -0.456841 3.47006 26.999
      vertex 0 3.5 20
      vertex -0.456841 3.47006 20
    endloop
  endfacet
  facet normal 0.659346 -0.75184 0
    outer loop
      vertex 2.13066 -2.77674 20
      vertex 2.47487 -2.47487 26.999
      vertex 2.13066 -2.77674 26.999
    endloop
  endfacet
  facet normal 0.659346 -0.75184 0
    outer loop
      vertex 2.47487 -2.47487 26.999
      vertex 2.13066 -2.77674 20
      vertex 2.47487 -2.47487 20
    endloop
  endfacet
  facet normal 0.442287 -0.896873 0
    outer loop
      vertex 1.33939 -3.23358 20
      vertex 1.75 -3.03109 26.999
      vertex 1.33939 -3.23358 26.999
    endloop
  endfacet
  facet normal 0.442287 -0.896873 0
    outer loop
      vertex 1.75 -3.03109 26.999
      vertex 1.33939 -3.23358 20
      vertex 1.75 -3.03109 20
    endloop
  endfacet
  facet normal -0.32144 -0.94693 0
    outer loop
      vertex -1.33939 -3.23358 20
      vertex -0.905867 -3.38074 26.999
      vertex -1.33939 -3.23358 26.999
    endloop
  endfacet
  facet normal -0.32144 -0.94693 -0
    outer loop
      vertex -0.905867 -3.38074 26.999
      vertex -1.33939 -3.23358 20
      vertex -0.905867 -3.38074 20
    endloop
  endfacet
  facet normal -0.980785 -0.19509 0
    outer loop
      vertex -3.38074 -0.905867 20
      vertex -3.47006 -0.456841 26.999
      vertex -3.47006 -0.456841 20
    endloop
  endfacet
  facet normal -0.980785 -0.19509 0
    outer loop
      vertex -3.47006 -0.456841 26.999
      vertex -3.38074 -0.905867 20
      vertex -3.38074 -0.905867 26.999
    endloop
  endfacet
  facet normal -0.896873 -0.442288 0
    outer loop
      vertex -3.03109 -1.75 20
      vertex -3.23358 -1.33939 26.999
      vertex -3.23358 -1.33939 20
    endloop
  endfacet
  facet normal -0.896873 -0.442288 0
    outer loop
      vertex -3.23358 -1.33939 26.999
      vertex -3.03109 -1.75 20
      vertex -3.03109 -1.75 26.999
    endloop
  endfacet
  facet normal -0.94693 -0.32144 0
    outer loop
      vertex -3.23358 -1.33939 20
      vertex -3.38074 -0.905867 26.999
      vertex -3.38074 -0.905867 20
    endloop
  endfacet
  facet normal -0.94693 -0.32144 0
    outer loop
      vertex -3.38074 -0.905867 26.999
      vertex -3.23358 -1.33939 20
      vertex -3.23358 -1.33939 26.999
    endloop
  endfacet
  facet normal 0.896873 0.442288 0
    outer loop
      vertex 3.23358 1.33939 26.999
      vertex 3.03109 1.75 20
      vertex 3.03109 1.75 26.999
    endloop
  endfacet
  facet normal 0.896873 0.442288 0
    outer loop
      vertex 3.03109 1.75 20
      vertex 3.23358 1.33939 26.999
      vertex 3.23358 1.33939 20
    endloop
  endfacet
  facet normal 0.555571 0.831469 -0
    outer loop
      vertex 2.13066 2.77674 20
      vertex 1.75 3.03109 26.999
      vertex 2.13066 2.77674 26.999
    endloop
  endfacet
  facet normal 0.555571 0.831469 0
    outer loop
      vertex 1.75 3.03109 26.999
      vertex 2.13066 2.77674 20
      vertex 1.75 3.03109 20
    endloop
  endfacet
  facet normal -0.55557 0.83147 0
    outer loop
      vertex -1.75 3.03109 20
      vertex -2.13066 2.77674 26.999
      vertex -1.75 3.03109 26.999
    endloop
  endfacet
  facet normal -0.55557 0.83147 0
    outer loop
      vertex -2.13066 2.77674 26.999
      vertex -1.75 3.03109 20
      vertex -2.13066 2.77674 20
    endloop
  endfacet
  facet normal -0.19509 0.980785 0
    outer loop
      vertex -0.456841 3.47006 20
      vertex -0.905867 3.38074 26.999
      vertex -0.456841 3.47006 26.999
    endloop
  endfacet
  facet normal -0.19509 0.980785 0
    outer loop
      vertex -0.905867 3.38074 26.999
      vertex -0.456841 3.47006 20
      vertex -0.905867 3.38074 20
    endloop
  endfacet
  facet normal 0.32144 -0.94693 0
    outer loop
      vertex 0.905867 -3.38074 20
      vertex 1.33939 -3.23358 26.999
      vertex 0.905867 -3.38074 26.999
    endloop
  endfacet
  facet normal 0.32144 -0.94693 0
    outer loop
      vertex 1.33939 -3.23358 26.999
      vertex 0.905867 -3.38074 20
      vertex 1.33939 -3.23358 20
    endloop
  endfacet
  facet normal 0.0654042 -0.997859 0
    outer loop
      vertex 0 -3.5 20
      vertex 0.456841 -3.47006 26.999
      vertex 0 -3.5 26.999
    endloop
  endfacet
  facet normal 0.0654042 -0.997859 0
    outer loop
      vertex 0.456841 -3.47006 26.999
      vertex 0 -3.5 20
      vertex 0.456841 -3.47006 20
    endloop
  endfacet
  facet normal 0.19509 -0.980785 0
    outer loop
      vertex 0.456841 -3.47006 20
      vertex 0.905867 -3.38074 26.999
      vertex 0.456841 -3.47006 26.999
    endloop
  endfacet
  facet normal 0.19509 -0.980785 0
    outer loop
      vertex 0.905867 -3.38074 26.999
      vertex 0.456841 -3.47006 20
      vertex 0.905867 -3.38074 20
    endloop
  endfacet
  facet normal 0.555571 -0.831469 0
    outer loop
      vertex 1.75 -3.03109 20
      vertex 2.13066 -2.77674 26.999
      vertex 1.75 -3.03109 26.999
    endloop
  endfacet
  facet normal 0.555571 -0.831469 0
    outer loop
      vertex 2.13066 -2.77674 26.999
      vertex 1.75 -3.03109 20
      vertex 2.13066 -2.77674 20
    endloop
  endfacet
  facet normal 0.997859 -0.0654042 0
    outer loop
      vertex 3.47006 -0.456841 26.999
      vertex 3.5 0 20
      vertex 3.5 0 26.999
    endloop
  endfacet
  facet normal 0.997859 -0.0654042 0
    outer loop
      vertex 3.5 0 20
      vertex 3.47006 -0.456841 26.999
      vertex 3.47006 -0.456841 20
    endloop
  endfacet
  facet normal 0.831469 -0.555571 0
    outer loop
      vertex 2.77674 -2.13066 26.999
      vertex 3.03109 -1.75 20
      vertex 3.03109 -1.75 26.999
    endloop
  endfacet
  facet normal 0.831469 -0.555571 0
    outer loop
      vertex 3.03109 -1.75 20
      vertex 2.77674 -2.13066 26.999
      vertex 2.77674 -2.13066 20
    endloop
  endfacet
  facet normal 0.75184 -0.659346 0
    outer loop
      vertex 2.47487 -2.47487 26.999
      vertex 2.77674 -2.13066 20
      vertex 2.77674 -2.13066 26.999
    endloop
  endfacet
  facet normal 0.75184 -0.659346 0
    outer loop
      vertex 2.77674 -2.13066 20
      vertex 2.47487 -2.47487 26.999
      vertex 2.47487 -2.47487 20
    endloop
  endfacet
  facet normal -0.19509 -0.980785 0
    outer loop
      vertex -0.905867 -3.38074 20
      vertex -0.456841 -3.47006 26.999
      vertex -0.905867 -3.38074 26.999
    endloop
  endfacet
  facet normal -0.19509 -0.980785 -0
    outer loop
      vertex -0.456841 -3.47006 26.999
      vertex -0.905867 -3.38074 20
      vertex -0.456841 -3.47006 20
    endloop
  endfacet
  facet normal -0.555571 -0.831469 0
    outer loop
      vertex -2.13066 -2.77674 20
      vertex -1.75 -3.03109 26.999
      vertex -2.13066 -2.77674 26.999
    endloop
  endfacet
  facet normal -0.555571 -0.831469 -0
    outer loop
      vertex -1.75 -3.03109 26.999
      vertex -2.13066 -2.77674 20
      vertex -1.75 -3.03109 20
    endloop
  endfacet
  facet normal -0.659346 -0.75184 0
    outer loop
      vertex -2.47487 -2.47487 20
      vertex -2.13066 -2.77674 26.999
      vertex -2.47487 -2.47487 26.999
    endloop
  endfacet
  facet normal -0.659346 -0.75184 -0
    outer loop
      vertex -2.13066 -2.77674 26.999
      vertex -2.47487 -2.47487 20
      vertex -2.13066 -2.77674 20
    endloop
  endfacet
  facet normal -0.442287 -0.896873 0
    outer loop
      vertex -1.75 -3.03109 20
      vertex -1.33939 -3.23358 26.999
      vertex -1.75 -3.03109 26.999
    endloop
  endfacet
  facet normal -0.442287 -0.896873 -0
    outer loop
      vertex -1.33939 -3.23358 26.999
      vertex -1.75 -3.03109 20
      vertex -1.33939 -3.23358 20
    endloop
  endfacet
  facet normal -0.0654042 -0.997859 0
    outer loop
      vertex -0.456841 -3.47006 20
      vertex 0 -3.5 26.999
      vertex -0.456841 -3.47006 26.999
    endloop
  endfacet
  facet normal -0.0654042 -0.997859 -0
    outer loop
      vertex 0 -3.5 26.999
      vertex -0.456841 -3.47006 20
      vertex 0 -3.5 20
    endloop
  endfacet
  facet normal -0.75184 -0.659346 0
    outer loop
      vertex -2.47487 -2.47487 20
      vertex -2.77674 -2.13066 26.999
      vertex -2.77674 -2.13066 20
    endloop
  endfacet
  facet normal -0.75184 -0.659346 0
    outer loop
      vertex -2.77674 -2.13066 26.999
      vertex -2.47487 -2.47487 20
      vertex -2.47487 -2.47487 26.999
    endloop
  endfacet
  facet normal -0.997859 -0.0654042 0
    outer loop
      vertex -3.47006 -0.456841 20
      vertex -3.5 0 26.999
      vertex -3.5 0 20
    endloop
  endfacet
  facet normal -0.997859 -0.0654042 0
    outer loop
      vertex -3.5 0 26.999
      vertex -3.47006 -0.456841 20
      vertex -3.47006 -0.456841 26.999
    endloop
  endfacet
  facet normal 0.19509 0.980785 -0
    outer loop
      vertex 0.905867 3.38074 20
      vertex 0.456841 3.47006 26.999
      vertex 0.905867 3.38074 26.999
    endloop
  endfacet
  facet normal 0.19509 0.980785 0
    outer loop
      vertex 0.456841 3.47006 26.999
      vertex 0.905867 3.38074 20
      vertex 0.456841 3.47006 20
    endloop
  endfacet
  facet normal -0.75184 0.659346 0
    outer loop
      vertex -2.77674 2.13066 20
      vertex -2.47487 2.47487 26.999
      vertex -2.47487 2.47487 20
    endloop
  endfacet
  facet normal -0.75184 0.659346 0
    outer loop
      vertex -2.47487 2.47487 26.999
      vertex -2.77674 2.13066 20
      vertex -2.77674 2.13066 26.999
    endloop
  endfacet
  facet normal -0.980785 0.19509 0
    outer loop
      vertex -3.47006 0.456841 20
      vertex -3.38074 0.905867 26.999
      vertex -3.38074 0.905867 20
    endloop
  endfacet
  facet normal -0.980785 0.19509 0
    outer loop
      vertex -3.38074 0.905867 26.999
      vertex -3.47006 0.456841 20
      vertex -3.47006 0.456841 26.999
    endloop
  endfacet
  facet normal 0.896873 -0.442287 0
    outer loop
      vertex 3.03109 -1.75 26.999
      vertex 3.23358 -1.33939 20
      vertex 3.23358 -1.33939 26.999
    endloop
  endfacet
  facet normal 0.896873 -0.442287 0
    outer loop
      vertex 3.23358 -1.33939 20
      vertex 3.03109 -1.75 26.999
      vertex 3.03109 -1.75 20
    endloop
  endfacet
  facet normal 0.94693 -0.32144 0
    outer loop
      vertex 3.23358 -1.33939 26.999
      vertex 3.38074 -0.905867 20
      vertex 3.38074 -0.905867 26.999
    endloop
  endfacet
  facet normal 0.94693 -0.32144 0
    outer loop
      vertex 3.38074 -0.905867 20
      vertex 3.23358 -1.33939 26.999
      vertex 3.23358 -1.33939 20
    endloop
  endfacet
  facet normal 0.980785 -0.19509 0
    outer loop
      vertex 3.38074 -0.905867 26.999
      vertex 3.47006 -0.456841 20
      vertex 3.47006 -0.456841 26.999
    endloop
  endfacet
  facet normal 0.980785 -0.19509 0
    outer loop
      vertex 3.47006 -0.456841 20
      vertex 3.38074 -0.905867 26.999
      vertex 3.38074 -0.905867 20
    endloop
  endfacet
endsolid OpenSCAD_Model
